<?xml version="1.0" encoding="iso-8859-1"?>
<!-- Uploaded to: SVG Repo, www.svgrepo.com, Generator: SVG Repo Mixer Tools -->
<svg version="1.1" id="Layer_1" xmlns="http://www.w3.org/2000/svg" xmlns:xlink="http://www.w3.org/1999/xlink" 
	 viewBox="0 0 511.984 511.984" xml:space="preserve">
<rect x="207.991" y="301.774" style="fill:#DBADA2;" width="96" height="210.21"/>
<rect x="186.651" y="394.644" style="fill:#434A54;" width="138.68" height="85.34"/>
<g>
	<path style="fill:#FFCE54;" d="M245.324,437.303c0,5.905-4.781,10.687-10.672,10.687s-10.664-4.781-10.664-10.687
		c0-5.875,4.773-10.656,10.664-10.656S245.324,431.428,245.324,437.303z"/>
	<path style="fill:#FFCE54;" d="M287.984,437.303c0,5.905-4.779,10.687-10.654,10.687c-5.898,0-10.68-4.781-10.68-10.687
		c0-5.875,4.781-10.656,10.68-10.656C283.206,426.646,287.984,431.428,287.984,437.303z"/>
	<path style="fill:#FFCE54;" d="M186.653,447.989h-10.664c-5.891,0-10.664-4.781-10.664-10.687c0-5.875,4.773-10.656,10.664-10.656
		h10.664c5.89,0,10.671,4.781,10.671,10.656C197.324,443.208,192.543,447.989,186.653,447.989z"/>
	<path style="fill:#FFCE54;" d="M335.984,447.989h-10.656c-5.906,0-10.688-4.781-10.688-10.687c0-5.875,4.781-10.656,10.688-10.656
		h10.656c5.891,0,10.656,4.781,10.656,10.656C346.641,443.208,341.876,447.989,335.984,447.989z"/>
</g>
<path style="fill:#EAC6BB;" d="M335.984,0c-11.781,0-21.344,9.547-21.344,21.328v0.016v150.715l0,0c0,2.938-2.375,5.328-5.312,5.328
	c-2.953,0-5.344-2.391-5.344-5.328v-22.733c0-11.781-9.562-21.328-21.342-21.328c-11.773,0-21.32,9.547-21.32,21.328
	c0,0.016,0,0.016,0,0.016v22.718l0,0c0,2.938-2.391,5.328-5.336,5.328s-5.336-2.391-5.336-5.328v-22.733
	c0-11.781-9.546-21.328-21.328-21.328c-11.781,0-21.335,9.547-21.335,21.328c0,0.016,0,0.016,0,0.016v22.718l0,0
	c0,2.938-2.39,5.328-5.335,5.328s-5.328-2.391-5.328-5.328V42.655c0-11.78-9.555-21.327-21.335-21.327s-21.335,9.547-21.335,21.327
	c0,0.016,0,0.016,0,0.016v129.388v10.672v13.249v31.719v12.046c0,55.968,45.374,101.342,101.333,101.342
	c55.967,0,101.342-45.374,101.342-101.342v-12.046V195.98v-13.249v-10.672V21.328C357.329,9.547,347.766,0,335.984,0z"/>
</svg>